<?xml version="1.0" encoding="UTF-8"?>
<svg width="38px" height="38px" viewBox="0 0 38 38" version="1.1" xmlns="http://www.w3.org/2000/svg" xmlns:xlink="http://www.w3.org/1999/xlink">
    <!-- Generator: Sketch 51.2 (57519) - http://www.bohemiancoding.com/sketch -->
    <title>slack</title>
    <desc>Created with Sketch.</desc>
    <defs></defs>
    <g id="Symbols" stroke="none" stroke-width="1" fill="none" fill-rule="evenodd">
        <g id="Cheatsheet-Block" transform="translate(-212.000000, -227.000000)">
            <g id="Social-Icons" transform="translate(20.000000, 227.000000)">
                <g id="slack" transform="translate(192.000000, 0.000000)">
                    <path d="M0,19 C0,8.50658923 8.37922819,0 18.7155311,0 C29.0518341,0 37.4310623,8.50658923 37.4310623,19 C37.4310623,29.4934108 29.0518341,38 18.7155311,38 C8.37922819,38 0,29.4934108 0,19 Z" id="back" fill="#FFFFFF"></path>
                    <g id="Group" transform="translate(8.721311, 8.866667)">
                        <path d="M12.9233905,1.25387541 C12.6204525,0.305827323 11.6189928,-0.21296612 10.6866498,0.0951868856 C9.75414353,0.40317377 9.24385485,1.42132459 9.54695616,2.36920656 L14.1371029,16.7273093 C14.4522956,17.6128962 15.3932986,18.1105923 16.2965568,17.8462951 C17.2387036,17.5705356 17.8130438,16.5532153 17.5123934,15.6124765 C17.5009557,15.5765946 12.9233905,1.25387541 12.9233905,1.25387541" id="Shape" fill="#DFA22F"></path>
                        <path d="M5.81104865,3.60331366 C5.50794732,2.6554317 4.5064875,2.13663826 3.57414459,2.44462514 C2.64163827,2.75261202 2.13134964,3.77076284 2.43445095,4.71881093 L7.02459769,19.0769137 C7.33979038,19.9625006 8.28079336,20.4601967 9.18405157,20.1957333 C10.1261983,19.9201399 10.7005386,18.9028197 10.3998882,17.9619147 C10.3884504,17.9261989 5.81104865,3.60331366 5.81104865,3.60331366" id="Shape" fill="#3CB187"></path>
                        <path d="M18.7011062,13.145259 C19.6336125,12.8372721 20.1437377,11.8191213 19.8407998,10.8710733 C19.5378619,9.92319128 18.536402,9.40439778 17.6040591,9.71238469 L3.48133512,14.3792 C2.61026606,14.6994798 2.12072884,15.6561661 2.38069337,16.5744787 C2.65193227,17.5323279 3.65257511,18.1162404 4.57789197,17.8105793 C4.6131857,17.7989508 18.7011062,13.145259 18.7011062,13.145259" id="Shape" fill="#CE1E5B"></path>
                        <path d="M6.42476754,17.2005858 C7.3440387,16.896918 8.52882987,16.5055388 9.80022141,16.0855869 C9.50153184,15.1509946 9.11656863,13.9462907 8.70333779,12.6535432 L5.3277205,13.7690404 L6.42476754,17.2005858" id="Shape" fill="#392538"></path>
                        <path d="M13.5372728,14.8509814 C14.8134029,14.4295344 15.9995012,14.0376568 16.9127267,13.7359826 C16.6140371,12.8013901 16.2289105,11.5963541 15.8156797,10.3032743 L12.4400623,11.4187716 L13.5372728,14.8509814" id="Shape" fill="#BB242A"></path>
                        <path d="M16.3901833,5.91421202 C17.3225262,5.60622514 17.8328148,4.58807432 17.5298769,3.64002623 C17.226939,2.69214426 16.2254791,2.17335082 15.2929728,2.4813377 L1.17024886,7.148153 C0.29917979,7.46843279 -0.19035743,8.4251191 0.0697704918,9.34343169 C0.340846009,10.3012809 1.34148885,10.8851934 2.26696909,10.5795323 C2.30209944,10.5679038 16.3901833,5.91421202 16.3901833,5.91421202" id="Shape" fill="#72C5CD"></path>
                        <path d="M4.11319108,9.96970494 C5.03246224,9.66603712 6.21758022,9.27449177 7.48913518,8.85453992 C7.07459715,7.55697486 6.68914378,6.3511082 6.39241494,5.42249617 L3.01598065,6.53815956 L4.11319108,9.96970494" id="Shape" fill="#248C73"></path>
                        <path d="M11.2255329,7.62026667 C12.5019898,7.19865356 13.6882515,6.80677596 14.6016404,6.50493552 C14.186939,5.20720437 13.8014856,4.00100547 13.5045934,3.07222733 L10.1283225,4.18789071 L11.2255329,7.62026667" id="Shape" fill="#62803A"></path>
                    </g>
                </g>
            </g>
        </g>
    </g>
</svg>