<?xml version="1.0" encoding="UTF-8"?>
<svg width="38px" height="38px" viewBox="0 0 38 38" version="1.1" xmlns="http://www.w3.org/2000/svg" xmlns:xlink="http://www.w3.org/1999/xlink">
    <!-- Generator: Sketch 51.2 (57519) - http://www.bohemiancoding.com/sketch -->
    <title>facebook</title>
    <desc>Created with Sketch.</desc>
    <defs></defs>
    <g id="Symbols" stroke="none" stroke-width="1" fill="none" fill-rule="evenodd">
        <g id="Cheatsheet-Block" transform="translate(-105.000000, -113.000000)">
            <g id="Social-Icons" transform="translate(20.000000, 113.000000)">
                <g id="facebook" transform="translate(85.000000, 0.000000)">
                    <path d="M0,19 C0,8.50658923 8.50658923,0 19,0 C29.4934108,0 38,8.50658923 38,19 C38,29.4934108 29.4934108,38 19,38 C8.50658923,38 0,29.4934108 0,19 Z" id="back" fill="#3B5998"></path>
                    <path d="M20.3470644,29.5382524 L20.3470644,19.2012493 L23.2005294,19.2012493 L23.5786751,15.6390608 L20.3470644,15.6390608 L20.3519125,13.8561511 C20.3519125,12.9270775 20.4401869,12.4292586 21.7746049,12.4292586 L23.558475,12.4292586 L23.558475,8.86666667 L20.7046061,8.86666667 C17.2766505,8.86666667 16.070099,10.5947113 16.070099,13.5007391 L16.070099,15.6394642 L13.9333333,15.6394642 L13.9333333,19.2016527 L16.070099,19.2016527 L16.070099,29.5382524 L20.3470644,29.5382524 Z" id="Shape" fill="#FFFFFF"></path>
                </g>
            </g>
        </g>
    </g>
</svg>