<?xml version="1.0" encoding="UTF-8"?>
<svg width="38px" height="38px" viewBox="0 0 38 38" version="1.1" xmlns="http://www.w3.org/2000/svg" xmlns:xlink="http://www.w3.org/1999/xlink">
    <!-- Generator: Sketch 51.2 (57519) - http://www.bohemiancoding.com/sketch -->
    <title>LinkedIN</title>
    <desc>Created with Sketch.</desc>
    <defs></defs>
    <g id="Symbols" stroke="none" stroke-width="1" fill="none" fill-rule="evenodd">
        <g id="Cheatsheet-Block" transform="translate(-164.000000, -227.000000)">
            <g id="Social-Icons" transform="translate(20.000000, 227.000000)">
                <g id="LinkedIN" transform="translate(144.000000, 0.000000)">
                    <path d="M0,19 C0,8.50658923 8.50658923,0 19,0 C29.4934108,0 38,8.50658923 38,19 C38,29.4934108 29.4934108,38 19,38 C8.50658923,38 0,29.4934108 0,19 Z" id="back" fill="#0077B5"></path>
                    <path d="M13.4270957,15.7366299 L13.4270957,28.6738181 L9.12128023,28.6738181 L9.12128023,15.7366299 L13.4270957,15.7366299 Z M13.7106876,11.7346357 C13.7106876,12.9768441 12.7756427,13.9708169 11.274274,13.9708169 L11.2467575,13.9708169 C9.80119562,13.9708169 8.86666667,12.9768441 8.86666667,11.7346357 C8.86666667,10.4661526 9.82965799,9.5 11.3026504,9.5 C12.7756427,9.5 13.6827412,10.4661526 13.7106876,11.7346357 Z M28.9555136,21.2560298 L28.9553416,28.6738181 L24.6496981,28.6738181 L24.6496981,21.7524151 C24.6496981,20.0139072 24.0266215,18.8275969 22.467898,18.8275969 C21.2783256,18.8275969 20.5697758,19.6273432 20.2585815,20.3997844 C20.144732,20.676613 20.1167855,21.0623184 20.1167855,21.4489684 L20.1167855,28.6741616 L15.8104541,28.6741616 C15.8104541,28.6741616 15.8672069,16.9509322 15.8104541,15.7369734 L20.1167855,15.7369734 L20.1167855,17.5694176 C20.6882687,16.6885289 21.7117964,15.4328397 23.9979011,15.4328397 C26.8313262,15.4328397 28.9555136,17.2822851 28.9555136,21.2560298 Z" id="Shape" fill="#FFFFFF"></path>
                </g>
            </g>
        </g>
    </g>
</svg>