<?xml version="1.0" encoding="UTF-8"?>
<svg width="38px" height="38px" viewBox="0 0 38 38" version="1.1" xmlns="http://www.w3.org/2000/svg" xmlns:xlink="http://www.w3.org/1999/xlink">
    <!-- Generator: Sketch 51.2 (57519) - http://www.bohemiancoding.com/sketch -->
    <title>Twitter</title>
    <desc>Created with Sketch.</desc>
    <defs></defs>
    <g id="Symbols" stroke="none" stroke-width="1" fill="none" fill-rule="evenodd">
        <g id="Cheatsheet-Block" transform="translate(-20.000000, -227.000000)">
            <g id="Social-Icons" transform="translate(20.000000, 227.000000)">
                <g id="Twitter">
                    <path d="M0,19 C0,8.50658923 8.50658923,0 19,0 C29.4934108,0 38,8.50658923 38,19 C38,29.4934108 29.4934108,38 19,38 C8.50658923,38 0,29.4934108 0,19 Z" id="back" fill="#55ACEE"></path>
                    <path d="M18.4309521,15.443438 L18.4708224,16.1008809 L17.806317,16.0203777 C15.3875175,15.711782 13.2743905,14.6652403 11.480226,12.9075869 L10.6030789,12.0354689 L10.3771471,12.6794945 C9.89870322,14.1151351 10.2043757,15.6312788 11.2011337,16.6509861 C11.732738,17.2145086 11.6131271,17.2950118 10.6961097,16.9595817 C10.3771471,16.8522441 10.0980548,16.7717409 10.0714746,16.8119925 C9.97844386,16.9059129 10.2974064,18.1268783 10.5499185,18.6098975 C10.8954613,19.2807576 11.5998369,19.9382004 12.3706632,20.3272993 L13.0218784,20.6358949 L12.2510522,20.6493121 C11.5068062,20.6493121 11.480226,20.6627293 11.5599666,20.9444905 C11.8257688,21.8166086 12.8756872,22.7423955 14.0452167,23.1449116 L14.8692033,23.4266728 L14.1515375,23.8560232 C13.088329,24.4732145 11.8390589,24.8220617 10.5897888,24.8488961 C9.99173397,24.8623133 9.5,24.9159821 9.5,24.9562337 C9.5,25.0904057 11.1213931,25.841769 12.0649907,26.1369474 C14.8957835,27.0090655 18.2581807,26.6333839 20.7833011,25.1440746 C22.5774655,24.0841156 24.37163,21.977615 25.2089068,19.9382004 C25.6607704,18.8514071 26.1126341,16.8656613 26.1126341,15.91304 C26.1126341,15.2958488 26.1525044,15.2153456 26.8967504,14.4773995 C27.3353239,14.0480491 27.7473173,13.578447 27.8270579,13.444275 C27.959959,13.1893482 27.9466689,13.1893482 27.2688734,13.4174406 C26.1392143,13.8199566 25.979733,13.7662878 26.5379175,13.1625138 C26.9499108,12.7331633 27.4416448,11.9549657 27.4416448,11.7268732 C27.4416448,11.6866216 27.2422932,11.7537076 27.0163614,11.8744624 C26.7771394,12.0086345 26.2455351,12.2098925 25.8468319,12.3306473 L25.1291661,12.5587397 L24.4779509,12.1159721 C24.119118,11.8744624 23.6140939,11.6061184 23.3482918,11.5256152 C22.6704963,11.3377744 21.6338679,11.3646088 21.022523,11.579284 C19.3612596,12.1830581 18.3113411,13.7394534 18.4309521,15.443438 Z" id="Shape" fill="#FFFFFF"></path>
                </g>
            </g>
        </g>
    </g>
</svg>